<?xml version="1.0" encoding="utf-8"?>
<!-- Generator: Adobe Illustrator 16.0.0, SVG Export Plug-In . SVG Version: 6.00 Build 0)  -->
<!DOCTYPE svg PUBLIC "-//W3C//DTD SVG 1.1//EN" "http://www.w3.org/Graphics/SVG/1.1/DTD/svg11.dtd">
<svg version="1.1" id="Layer_1" xmlns="http://www.w3.org/2000/svg" xmlns:xlink="http://www.w3.org/1999/xlink" x="0px" y="0px"
	 width="268px" height="267px" viewBox="0 0 268 267" style="enable-background:new 0 0 268 267;" xml:space="preserve">
<g>
	<g>
		<path style="fill:#0000FF;" d="M258.292,131.338c-0.251,46.116-26.013,88.46-66.763,110.018
			c-41.213,21.801-92.349,17.31-130.003-9.643C23.72,204.652,4.691,157.035,11.94,111.354c7.139-44.987,39.889-82.897,82.821-97.544
			c37.77-12.886,80.065-5.958,112.358,17.156C239.243,53.958,258.079,92.045,258.292,131.338c0.019,3.225,5.019,3.225,5,0
			c-0.239-44.175-22.96-85.275-60.146-109.091C165.529-1.844,116.832-3.717,76.937,15.812C37.65,35.044,11.054,74.269,6.104,117.466
			c-5.063,44.188,14.348,88.603,49.255,115.828c35.166,27.427,83.231,34.297,124.862,18.599
			c40.7-15.347,71.217-51.502,80.311-93.904c1.876-8.745,2.713-17.713,2.762-26.649
			C263.311,128.113,258.311,128.114,258.292,131.338z"/>
	</g>
</g>
<g>
	<path style="fill:#0000FF;" d="M83.65,115.385c0.211-2.59,0.386-5.184,0.638-7.771c0.854-8.773,6.925-13.238,14.095-16.567
		c1.735-0.805,3.489-1.162,3.809-3.329c0.568-3.863,2.875-4.339,6.348-3.989c3.934,0.396,2.861,3.12,2.781,5.126
		c-0.121,3.041,1.416,2.977,3.393,2.214c1.852-0.713,3.695-1.537,5.377-2.578c5.959-3.687,12.033-7.145,18.481-9.905
		c1.605-0.688,3.273-2.299,5.023-0.646c1.699,1.605,0.414,3.382-0.217,5.066c-0.156,0.423-0.104,0.924-0.201,1.96
		c4.807-1.58,9.338-2.967,13.793-4.569c3.717-1.337,6.379-0.606,8.303,3.042c2.617,4.973,5.609,9.662,9.437,13.902
		c2.785,3.085,4.158,7.171,4.427,11.48c0.081,1.333,0.385,2.928,1.686,3.403c1.33,0.486,1.66-1.379,2.586-1.922
		c13.41-7.864,7.486-20.357,7.258-31.283c-0.156-7.51-2.654-14.691-5.484-21.686c-4.934-12.191-14.562-18.833-27.586-18.842
		c-4.832-0.003-9.666,0.021-14.498-0.057c-1.42-0.021-3.367,0.189-3.367-1.953c0.002-1.735,1.711-1.899,3.015-1.896
		c7.991,0.018,16.223-1.062,23.92,0.484c10.573,2.123,17.438,9.99,21.801,19.653c6.392,14.152,8.731,29.379,6.716,44.454
		c-1.468,10.957,1.479,22.231-3.031,32.902c-1.713,4.049-3.074,8.073-6.799,10.769c-0.925,0.67-1.851,1.338-2.293,2.543
		c-5.552,15.049,1.502,33.455,15.53,41.549c6.83,3.939,13.998,6.951,21.324,9.713c1.399,0.527,2.803,1.07,4.142,1.732
		c1.153,0.572,2.737,1.119,2.147,2.834c-0.58,1.684-2.199,1.393-3.406,0.924c-6.356-2.475-12.797-4.799-18.961-7.701
		c-4.801-2.262-9.328-5.155-13.797-8.049c-1.896-1.227-2.791-1.012-3.953,0.773c-7.578,11.658-18.621,21.07-22.604,35.076
		c-0.41,1.445-1.336,3.602-3.473,2.518c-1.662-0.844-0.768-2.576-0.232-4.004c3.365-8.965,7.636-17.4,14.32-24.402
		c3.822-4.004,6.57-8.809,10.016-13.082c2.574-3.192-0.58-4.826-1.745-6.877c-1.367-2.399-2.945-0.735-4.591,0.101
		c-4.846,2.459-8.424,6.465-12.557,9.803c-9.789,7.908-21.059,13.384-32.32,18.763c-2.877,1.375-2.756,2.274-0.869,4.071
		c2.051,1.949,4.223,3.774,6.201,5.793c0.938,0.953,1.67,2.298,0.304,3.494c-1.193,1.045-2.147,0.024-3.039-0.688
		c-0.779-0.625-1.424-1.447-2.264-1.959c-2.93-1.779-4.57-6.881-9.51-3.574c-3.092,2.068-7.33,2.754-8.268,7.264
		c-0.18,0.869-0.691,1.613-1.607,1.68c-1.217,0.086-1.707-0.873-2.002-1.859c-1.309-4.395-3.18-4.918-5.92-0.987
		c-0.652,0.935-1.647,1.646-2.551,2.379c-0.807,0.654-1.818,1.093-2.71,0.308c-1.123-0.984-0.653-2.164,0.116-3.107
		c2.093-2.566,4.059-5.291,6.477-7.518c1.467-1.351,1.672-2.691,1.69-4.381c0.026-2.295-0.526-2.795-2.938-1.838
		c-13.453,5.336-26.998,10.442-40.504,15.645c-1.703,0.654-3.378,1.39-5.053,2.115c-1.355,0.59-2.949,1.693-3.887-0.197
		c-0.893-1.799,0.869-2.733,2.117-3.395c1.898-1.004,3.953-1.719,5.961-2.502c13.791-5.387,27.556-10.84,41.41-16.053
		c2.037-0.768,3.203-1.449,2.938-3.695c-0.038-0.324-0.092-0.764,0.078-0.98c4.975-6.413-0.648-8.831-4.441-12.032
		c-9.843-8.306-14.719-19.565-18.273-31.499c-1.209-4.059-2.897-7.723-5.354-11.166c-4.363-6.119-7.025-12.59-2.564-19.901
		c0.875-1.432,0.599-2.889,0.134-4.338c-1.425-4.442-2.466-9.065-4.407-13.27c-3.871-8.384-4.552-16.636-0.376-25.006
		c3.179-6.37,5.597-13.123,9.56-19.102c7.045-10.634,18.273-16.292,28.123-23.583c1.809-1.338,4.057-1.565,6.221-1.553
		c4.664,0.024,9.328,0.191,13.988,0.381c1.461,0.059,3.445,0.069,3.439,2.02c-0.011,2.401-2.18,2.062-3.785,2.012
		c-3.496-0.108-6.992-0.281-10.482-0.518c-3.635-0.246-6.912,0.519-9.822,2.832c-8.021,6.379-17.694,10.762-23.477,19.845
		c-5.281,8.299-9.623,17.022-12.404,26.461c-0.497,1.688-0.573,3.774-0.065,5.438c2.401,7.861,5.073,15.639,7.647,23.447
		C83.035,115.488,83.343,115.437,83.65,115.385 M119.308,191.82c3.932,10.412,8.52,11.688,18.285,6.81
		c13.955-6.974,26.021-16.58,38.354-25.854c1.52-1.144,3.557-2.166,2.885-4.732c-1.777-6.788-0.68-13.568,0.141-20.329
		c0.295-2.428,0.303-5.278,2.396-6.873c8.18-6.228,8.307-15.411,9.215-24.306c0.174-1.719,0.562-4.174-1.646-4.742
		c-2.168-0.561-2.826,1.847-3.84,3.293c-1.059,1.51-0.527,4.428-3.336,4.347c-2.537-0.074-3.389-2.452-4.494-4.254
		c-1.311-2.137-2.188-4.424-2.383-7.013c-0.295-3.965-2.09-7.466-4.799-10.205c-2.846-2.881-5.309-5.79-6.686-9.7
		c-1.318-3.744-3.935-4.885-7.892-3.204c-4.741,2.014-9.67,3.586-14.528,5.318c-1.818,0.647-3.789,2.189-5.566,0.446
		c-2.01-1.97,0.686-3.552,0.912-5.377c0.029-0.229-0.289-0.501-0.477-0.797c-2.804,0.688-5.163,2.265-7.573,3.729
		c-5.549,3.37-11.023,6.836-17.543,8.19c-4.499,0.936-5.504,0.028-4.34-4.505c0.199-0.774,0.775-1.483,0.074-2.704
		c-1.902,2.938-2.924,6.677-6.764,7.414c-7.517,1.443-10.443,4.668-11.398,11.958c-0.998,7.623,0.562,15.16,0.314,22.725
		c-0.326,9.978,1.244,19.524,5.01,28.767c8.725,21.412,29.283,37.537,56.043,22.332c7.125-4.047,12.521-9.805,18.166-15.43
		c1.06-1.057,2.125-3.309,3.929-1.352c1.438,1.559,0.014,3.078-1.138,4.315c-1.473,1.584-2.905,3.218-4.493,4.681
		c-12.843,11.842-26.623,21.174-45.474,16.729C120.263,191.4,119.769,191.702,119.308,191.82 M126.394,206.046
		c-6.107-2.817-8.188-8.481-12.74-12.735c-1.168,6.147-0.65,11.582-0.533,16.987c0.043,2.022,1.094,2.63,2.967,1.552
		C119.224,210.042,122.394,208.294,126.394,206.046 M80.353,126.443c-0.121,4.924,1.531,7.575,3.515,10.816
		C86.306,132.217,82.914,130.201,80.353,126.443"/>
	<path style="fill:#0000FF;" d="M126.287,164.783c2.568,1.658,4.762,0.598,6.805,0.949c0.992,0.172,2.078,0.264,2.254,1.509
		c0.213,1.526-0.971,2.293-2.1,2.194c-4.584-0.399-10.57,3.17-12.834-4.357c-0.188-0.631-1.748-0.764-2.529-1.326
		c-0.961-0.688-1.066-2.338-0.178-2.426c3.629-0.355,5.459-3.355,8.225-4.869c1.523-0.834,4.193-0.885,5.139,1.502
		c0.611,1.545,1.365,2.041,2.895,1.971c1.324-0.061,2.961-0.053,2.916,1.795c-0.039,1.623-1.668,1.998-2.932,2.213
		C131.673,164.326,129.353,164.461,126.287,164.783"/>
	<path style="fill:#0000FF;" d="M133.519,108.208c1.062-7.888,11.236-13.628,17.559-10.799c1.066,0.479,2.232,1.079,1.955,2.514
		c-0.232,1.185-1.33,1.471-2.357,1.319C143.971,100.259,138.884,103.531,133.519,108.208"/>
	<path style="fill:#0000FF;" d="M116.427,112.891c-5.271-4.97-10.121-6.787-15.948-4.863c-1.136,0.375-2.383,0.448-3.181-0.646
		c-0.726-0.994-0.207-1.896,0.681-2.537c4.543-3.282,9.235-1.539,13.821-0.225C115.365,105.639,115.958,108.675,116.427,112.891"/>
	<path style="fill:#0000FF;" d="M137.5,116.172c3.043-6.542,19.695-6.545,26.66-0.268c-3.094,0.869-5.424-1.433-8.162-1.53
		c-2.461-0.089-4.887-0.917-6.725,1.704c-0.736,1.05-2.9,2.058-3.392,0.834C143.68,111.43,140.533,115.174,137.5,116.172"/>
	<path style="fill:#0000FF;" d="M94.147,122.428c2.323-5.49,11.339-8.566,14.977-5.87c0.79,0.585,1.138,1.264,0.44,2.05
		c-0.934,1.052-2.077,3.456-3.27,2.298C101.896,116.637,98.319,119.558,94.147,122.428"/>
	<path style="fill:#0000FF;" d="M151.38,121.884c-3.621,1.229-7.077,0.478-10.506-0.427c-0.808-0.213-1.496-0.834-1.207-1.833
		c0.272-0.95,1.088-1.368,1.896-0.848C144.576,120.721,148.291,120.091,151.38,121.884"/>
	<path style="fill:#0000FF;" d="M138.875,136.012c2.643,2.934,3.111,5.525-0.58,7.543
		C139.1,141.053,138.373,138.457,138.875,136.012"/>
	<path style="fill:#0000FF;" d="M104.969,111.245c1.353,0.688,2.826,1.544,3.642,2.868c0.494,0.803,3.314-0.117,2.693-1.126
		c-0.883-1.433-2.564-2.388-4.025-3.131c-0.603-0.307-1.512-0.048-2.051,0.276C104.828,110.373,104.361,110.935,104.969,111.245"/>
	<path style="fill:#0000FF;" d="M131.029,111.643c-0.336,1.728-0.766,4.186,1.062,5.231c0.502,0.287,1.375,0.002,1.865-0.174
		c0.104-0.037,1.317-0.548,0.867-0.807c-1.621-0.928-1.236-3.235-0.938-4.768C134.011,110.48,131.166,110.946,131.029,111.643"/>
	<path style="fill:#0000FF;" d="M107.796,122.766c-1.577,2.044-4.312,2.428-6.535,3.488c-0.318,0.154-0.943,0.703-0.311,0.918
		c0.65,0.223,1.451-0.047,2.037-0.326c2.633-1.257,5.578-1.731,7.465-4.177C111.134,121.787,108.277,122.143,107.796,122.766"/>
	<path style="fill:#0000FF;" d="M136.255,136.199c0.949,0.754,1.472,1.953,1.824,3.082c0.2,0.641,0.284,1.309,0.274,1.977
		c-0.004,0.295-0.074,0.576-0.166,0.854c-0.178,0.533-0.723,0.566,0.051,0.449c-0.479,0.072-1.438,0.283-1.706,0.758
		c-0.246,0.431,1.045,0.238,1.143,0.224c1.97-0.304,3.55-1.194,3.582-3.328c0.025-1.743-0.889-3.881-2.264-4.978
		C138.396,134.762,135.896,135.912,136.255,136.199"/>
	<path style="fill:#0000FF;" d="M130.513,140.672c-1.646,0.316-3.082,1.107-3.664,2.752c-0.211,0.596,0.949,0.545,1.221,0.506
		c0.539-0.078,1.455-0.328,1.664-0.918c0.113-0.326,0.252-0.594,0.471-0.859c0.016-0.02,0.271-0.215,0.111-0.112
		c0.246-0.156-0.145,0.037-0.246,0.058c0.521-0.101,1.475-0.312,1.664-0.918C131.917,140.586,130.806,140.615,130.513,140.672"/>
	<path style="fill:#0000FF;" d="M118.818,141.846c-0.811,0.656-1.748,1.479-1.809,2.592c-0.02,0.363,2.854,0.041,2.898-0.774
		c0.047-0.888,0.891-1.562,1.523-2.074c0.518-0.42-0.461-0.44-0.67-0.42C120.109,141.232,119.337,141.424,118.818,141.846"/>
</g>
</svg>
